<svg width="50" height="51" viewBox="0 0 50 51" fill="none" xmlns="http://www.w3.org/2000/svg">
<g clip-path="url(#clip0_175_338)">
<path d="M35.87 3.29902C32.5833 1.70977 28.896 0.818359 25.0005 0.818359C21.105 0.818359 17.4177 1.70977 14.131 3.29902L11.957 25.8184L14.131 48.3377C17.4177 49.927 21.105 50.8184 25.0005 50.8184C28.896 50.8184 32.5833 49.927 35.87 48.3377L38.0439 25.8184L35.87 3.29902Z" fill="#D80027"/>
<path d="M24.9994 17.123L27.1576 23.7655H34.1428L28.492 27.8714L30.6503 34.5143L24.9994 30.4087L19.3485 34.5143L21.5072 27.8714L15.8564 23.7655H22.8411L24.9994 17.123Z" fill="#FFDA44"/>
<path d="M14.1305 3.2998C5.76816 7.34336 0 15.9067 0 25.8183C0 35.7298 5.76816 44.2932 14.1305 48.3367V3.2998Z" fill="#496E2D"/>
<path d="M35.8691 3.2998V48.3367C44.2314 44.2932 49.9996 35.7297 49.9996 25.8183C49.9996 15.9068 44.2314 7.34336 35.8691 3.2998Z" fill="#FFDA44"/>
</g>
<defs>
<clipPath id="clip0_175_338">
<rect width="50" height="50" fill="white" transform="translate(0 0.818359)"/>
</clipPath>
</defs>
</svg>
